<svg width="22" height="23" viewBox="0 0 22 23" fill="none" xmlns="http://www.w3.org/2000/svg">
<path d="M1.81476 22.1563C1.32588 22.1563 0.907358 21.9791 0.559209 21.6247C0.211061 21.2704 0.0369873 20.8444 0.0369873 20.3468V7.22781C0.0369873 6.73019 0.211061 6.3042 0.559209 5.94984C0.907358 5.59548 1.32588 5.41829 1.81476 5.41829H4.92588V2.25165C4.92588 1.75403 5.09995 1.32805 5.4481 0.973683C5.79625 0.61932 6.21476 0.442139 6.70365 0.442139H14.7037C15.1925 0.442139 15.6111 0.61932 15.9592 0.973683C16.3074 1.32805 16.4814 1.75403 16.4814 2.25165V10.3945H19.5925C20.0814 10.3945 20.4999 10.5716 20.8481 10.926C21.1962 11.2804 21.3703 11.7063 21.3703 12.204V20.3468C21.3703 20.8444 21.1962 21.2704 20.8481 21.6247C20.4999 21.9791 20.0814 22.1563 19.5925 22.1563H12.274V17.1801H9.13328V22.1563H1.81476ZM1.81476 20.3468H4.92588V17.1801H1.81476V20.3468ZM1.81476 15.3706H4.92588V12.204H1.81476V15.3706ZM1.81476 10.3945H4.92588V7.22781H1.81476V10.3945ZM6.70365 15.3706H9.81476V12.204H6.70365V15.3706ZM6.70365 10.3945H9.81476V7.22781H6.70365V10.3945ZM6.70365 5.41829H9.81476V2.25165H6.70365V5.41829ZM11.5925 15.3706H14.7037V12.204H11.5925V15.3706ZM11.5925 10.3945H14.7037V7.22781H11.5925V10.3945ZM11.5925 5.41829H14.7037V2.25165H11.5925V5.41829ZM16.4814 20.3468H19.5925V17.1801H16.4814V20.3468ZM16.4814 15.3706H19.5925V12.204H16.4814V15.3706Z" fill="white"/>
</svg>
