<svg width="27" height="26" viewBox="0 0 27 26" fill="none" xmlns="http://www.w3.org/2000/svg">
<path d="M7.48145 22.0452L3.80738 21.2912C3.59009 21.251 3.40738 21.1354 3.25923 20.9444C3.11108 20.7534 3.05676 20.5372 3.09627 20.296L3.51108 16.677L1.17034 13.9024C1.01232 13.7415 0.933304 13.5405 0.933304 13.2992C0.933304 13.0579 1.01232 12.8569 1.17034 12.696L3.51108 9.9516L3.09627 6.33258C3.05676 6.09131 3.11108 5.87517 3.25923 5.68417C3.40738 5.49317 3.59009 5.37756 3.80738 5.33735L7.48145 4.58339L9.31849 1.35642C9.43701 1.15537 9.60491 1.01463 9.82219 0.934204C10.0395 0.853781 10.2568 0.863834 10.474 0.964363L13.7037 2.50245L16.9333 0.964363C17.1506 0.863834 17.3728 0.843728 17.6 0.904046C17.8271 0.964363 17.9901 1.1051 18.0889 1.32626L19.9555 4.58339L23.6 5.33735C23.8173 5.37756 24 5.49317 24.1481 5.68417C24.2963 5.87517 24.3506 6.09131 24.3111 6.33258L23.8963 9.9516L26.237 12.696C26.395 12.8569 26.474 13.0579 26.474 13.2992C26.474 13.5405 26.395 13.7415 26.237 13.9024L23.8963 16.677L24.3111 20.296C24.3506 20.5372 24.2963 20.7534 24.1481 20.9444C24 21.1354 23.8173 21.251 23.6 21.2912L19.9555 22.0452L18.0889 25.2721C17.9901 25.4933 17.8271 25.634 17.6 25.6944C17.3728 25.7547 17.1506 25.7346 16.9333 25.634L13.7037 24.0959L10.474 25.634C10.2568 25.7346 10.0395 25.7446 9.82219 25.6642C9.60491 25.5838 9.43701 25.443 9.31849 25.242L7.48145 22.0452ZM11.8074 16.677C11.9852 16.8579 12.1926 16.9484 12.4296 16.9484C12.6666 16.9484 12.874 16.8579 13.0518 16.677L18.5333 11.1579C18.6913 10.9971 18.7654 10.791 18.7555 10.5397C18.7457 10.2884 18.6518 10.0722 18.474 9.89128C18.2963 9.71033 18.0839 9.62488 17.837 9.63494C17.5901 9.64499 17.3679 9.74049 17.1703 9.92144L12.4296 14.7166L10.2666 12.3944C10.0889 12.1934 9.86664 12.0979 9.59997 12.1079C9.3333 12.118 9.11108 12.2235 8.9333 12.4246C8.75553 12.6257 8.6617 12.8569 8.65182 13.1182C8.64195 13.3796 8.73577 13.6008 8.9333 13.7817L11.8074 16.677Z" fill="white"/>
</svg>
