<svg width="25" height="23" viewBox="0 0 25 23" fill="none" xmlns="http://www.w3.org/2000/svg">
<path d="M12.4074 22.1563C12.1555 22.1563 11.9444 22.0691 11.774 21.8946C11.6037 21.7202 11.5185 21.5041 11.5185 21.2462C11.5185 20.9884 11.6037 20.774 11.774 20.6031C11.9444 20.4322 12.1555 20.3468 12.4074 20.3468H21.5925V11.1786C21.5925 10.0124 21.3456 8.89155 20.8518 7.8159C20.358 6.74024 19.6963 5.79025 18.8666 4.96592C18.037 4.14158 17.0888 3.48312 16.0222 2.99053C14.9555 2.49794 13.8493 2.25165 12.7037 2.25165C11.558 2.25165 10.4518 2.49794 9.38514 2.99053C8.31847 3.48312 7.37033 4.14158 6.5407 4.96592C5.71107 5.79025 5.04934 6.74024 4.55551 7.8159C4.06168 8.89155 3.81477 10.0124 3.81477 11.1786V17.9341C3.81477 18.105 3.75798 18.2482 3.6444 18.3638C3.53082 18.4794 3.39008 18.5373 3.22218 18.5373C2.57033 18.5373 2.0123 18.301 1.5481 17.8285C1.08391 17.356 0.851807 16.7881 0.851807 16.1246V13.7119C0.851807 13.2495 0.960449 12.8423 1.17773 12.4905C1.39502 12.1386 1.68144 11.8521 2.03699 11.6309L2.12588 10.0325C2.30366 8.56483 2.71354 7.23786 3.35551 6.05162C3.99749 4.86539 4.79749 3.8601 5.75551 3.03577C6.71354 2.21144 7.79008 1.57308 8.98514 1.12071C10.1802 0.668328 11.4197 0.442139 12.7037 0.442139C14.0074 0.442139 15.2567 0.668328 16.4518 1.12071C17.6469 1.57308 18.7185 2.21646 19.6666 3.05085C20.6148 3.88524 21.4098 4.89052 22.0518 6.0667C22.6938 7.24289 23.1037 8.55478 23.2814 10.0024L23.3703 11.5706C23.7259 11.7516 24.0123 12.018 24.2296 12.3698C24.4469 12.7217 24.5555 13.1087 24.5555 13.5309V16.3055C24.5555 16.7478 24.4469 17.1399 24.2296 17.4817C24.0123 17.8235 23.7259 18.0849 23.3703 18.2658V20.3468C23.3703 20.8444 23.1963 21.2704 22.8481 21.6247C22.5 21.9791 22.0814 22.1563 21.5925 22.1563H12.4074ZM9.1481 13.4103C8.91107 13.4103 8.70366 13.3198 8.52588 13.1389C8.3481 12.9579 8.25921 12.7418 8.25921 12.4905C8.25921 12.2391 8.3481 12.028 8.52588 11.8571C8.70366 11.6862 8.916 11.6008 9.16292 11.6008C9.40983 11.6008 9.61724 11.6875 9.78514 11.8609C9.95304 12.0343 10.037 12.2492 10.037 12.5055C10.037 12.7468 9.95181 12.9579 9.78144 13.1389C9.61107 13.3198 9.39995 13.4103 9.1481 13.4103ZM16.2592 13.4103C16.0222 13.4103 15.8148 13.3198 15.637 13.1389C15.4592 12.9579 15.3703 12.7418 15.3703 12.4905C15.3703 12.2391 15.4592 12.028 15.637 11.8571C15.8148 11.6862 16.0271 11.6008 16.274 11.6008C16.5209 11.6008 16.7284 11.6875 16.8963 11.8609C17.0642 12.0343 17.1481 12.2492 17.1481 12.5055C17.1481 12.7468 17.0629 12.9579 16.8925 13.1389C16.7222 13.3198 16.5111 13.4103 16.2592 13.4103ZM5.62218 11.8421C5.54316 10.6558 5.70613 9.58017 6.11107 8.6151C6.516 7.65003 7.05921 6.83072 7.7407 6.15718C8.42218 5.48364 9.20736 4.96592 10.0963 4.60401C10.9851 4.24211 11.874 4.06116 12.7629 4.06116C14.5604 4.06116 16.0716 4.6392 17.2963 5.79528C18.5209 6.95135 19.2716 8.39394 19.5481 10.123C17.6913 10.1029 16.0567 9.59525 14.6444 8.60002C13.2321 7.60479 12.1407 6.313 11.3703 4.72465C11.0543 6.35321 10.3876 7.79579 9.37033 9.0524C8.35304 10.309 7.10366 11.2389 5.62218 11.8421Z" fill="white"/>
</svg>
