<svg width="20" height="25" viewBox="0 0 20 25" fill="none" xmlns="http://www.w3.org/2000/svg">
<path d="M5.82218 19.1112H13.5851C13.837 19.1112 14.0481 19.0256 14.2185 18.8542C14.3888 18.6828 14.474 18.4705 14.474 18.2172C14.474 17.9638 14.3888 17.7532 14.2185 17.5853C14.0481 17.4174 13.837 17.3335 13.5851 17.3335H5.82218C5.57033 17.3335 5.35922 17.4191 5.18885 17.5905C5.01848 17.7619 4.93329 17.9742 4.93329 18.2275C4.93329 18.4809 5.01848 18.6915 5.18885 18.8594C5.35922 19.0273 5.57033 19.1112 5.82218 19.1112ZM5.82218 14.0742H13.5851C13.837 14.0742 14.0481 13.9885 14.2185 13.8172C14.3888 13.6458 14.474 13.4334 14.474 13.1801C14.474 12.9268 14.3888 12.7162 14.2185 12.5483C14.0481 12.3804 13.837 12.2964 13.5851 12.2964H5.82218C5.57033 12.2964 5.35922 12.3821 5.18885 12.5535C5.01848 12.7248 4.93329 12.9372 4.93329 13.1905C4.93329 13.4438 5.01848 13.6545 5.18885 13.8224C5.35922 13.9903 5.57033 14.0742 5.82218 14.0742ZM1.99996 24.1483C1.52589 24.1483 1.11107 23.9705 0.755517 23.615C0.399961 23.2594 0.222183 22.8446 0.222183 22.3705V2.22236C0.222183 1.74828 0.399961 1.33347 0.755517 0.977913C1.11107 0.622358 1.52589 0.44458 1.99996 0.44458H11.9555C12.2013 0.44458 12.4356 0.493963 12.6584 0.592728C12.8812 0.691494 13.0716 0.819889 13.2296 0.977913L18.6518 6.40014C18.8098 6.55816 18.9382 6.74856 19.037 6.97134C19.1358 7.19411 19.1851 7.4284 19.1851 7.67421V22.3705C19.1851 22.8446 19.0074 23.2594 18.6518 23.615C18.2963 23.9705 17.8814 24.1483 17.4074 24.1483H1.99996ZM11.8074 6.84458C11.8074 7.09643 11.8926 7.30754 12.0629 7.47791C12.2333 7.64828 12.4444 7.73347 12.6963 7.73347H17.4074L11.8074 2.22236V6.84458Z" fill="white"/>
</svg>
