<svg width="27" height="20" viewBox="0 0 27 20" fill="none" xmlns="http://www.w3.org/2000/svg">
<path d="M15.4814 12.0384C16.4691 12.0384 17.3086 11.6865 18 10.9828C18.6913 10.2791 19.037 9.42462 19.037 8.41934C19.037 7.41406 18.6913 6.55956 18 5.85587C17.3086 5.15217 16.4691 4.80032 15.4814 4.80032C14.4938 4.80032 13.6543 5.15217 12.9629 5.85587C12.2716 6.55956 11.9259 7.41406 11.9259 8.41934C11.9259 9.42462 12.2716 10.2791 12.9629 10.9828C13.6543 11.6865 14.4938 12.0384 15.4814 12.0384ZM5.99996 16.2606C5.51107 16.2606 5.09256 16.0834 4.74441 15.729C4.39626 15.3746 4.22219 14.9487 4.22219 14.451V2.38764C4.22219 1.89002 4.39626 1.46403 4.74441 1.10967C5.09256 0.755306 5.51107 0.578125 5.99996 0.578125H24.9629C25.4518 0.578125 25.8703 0.755306 26.2185 1.10967C26.5666 1.46403 26.7407 1.89002 26.7407 2.38764V14.451C26.7407 14.9487 26.5666 15.3746 26.2185 15.729C25.8703 16.0834 25.4518 16.2606 24.9629 16.2606H5.99996ZM2.44441 19.8796C1.95552 19.8796 1.537 19.7024 1.18885 19.348C0.840704 18.9937 0.66663 18.5677 0.66663 18.0701V5.1019C0.66663 4.84556 0.752309 4.63068 0.923667 4.45726C1.09504 4.28385 1.30739 4.19715 1.5607 4.19715C1.81404 4.19715 2.02465 4.28385 2.19256 4.45726C2.36046 4.63068 2.44441 4.84556 2.44441 5.1019V18.0701H22.2963C22.5481 18.0701 22.7592 18.1573 22.9296 18.3317C23.1 18.5061 23.1851 18.7223 23.1851 18.9801C23.1851 19.238 23.1 19.4523 22.9296 19.6232C22.7592 19.7941 22.5481 19.8796 22.2963 19.8796H2.44441ZM5.99996 5.40349C6.82959 5.40349 7.53083 5.11196 8.10367 4.52889C8.67651 3.94583 8.96293 3.23207 8.96293 2.38764H5.99996V5.40349ZM24.9629 5.40349V2.38764H22C22 3.23207 22.2864 3.94583 22.8592 4.52889C23.4321 5.11196 24.1333 5.40349 24.9629 5.40349ZM5.99996 14.451H8.96293C8.96293 13.6066 8.67651 12.8929 8.10367 12.3098C7.53083 11.7267 6.82959 11.4352 5.99996 11.4352V14.451ZM22 14.451H24.9629V11.4352C24.1333 11.4352 23.4321 11.7267 22.8592 12.3098C22.2864 12.8929 22 13.6066 22 14.451Z" fill="white"/>
</svg>
