<svg width="25" height="24" viewBox="0 0 25 24" fill="none" xmlns="http://www.w3.org/2000/svg">
<path d="M0.851807 13.7066V6.4987C0.851807 6.03627 1.03452 5.61908 1.39995 5.24712C1.76539 4.87517 2.17526 4.68919 2.62958 4.68919H8.25921V1.94477C8.25921 1.48233 8.43699 1.06514 8.79255 0.693187C9.1481 0.321231 9.56292 0.135254 10.037 0.135254H15.3703C15.8246 0.135254 16.2345 0.321231 16.6 0.693187C16.9654 1.06514 17.1481 1.48233 17.1481 1.94477V4.68919H22.7777C23.2518 4.68919 23.6666 4.87517 24.0222 5.24712C24.3777 5.61908 24.5555 6.03627 24.5555 6.4987V13.7066H15.4V12.8018C15.4 12.5455 15.3146 12.3306 15.144 12.1572C14.9734 11.9838 14.7619 11.8971 14.5097 11.8971H10.9487C10.6964 11.8971 10.4864 11.9838 10.3185 12.1572C10.1506 12.3306 10.0666 12.5455 10.0666 12.8018V13.7066H0.851807ZM10.037 4.68919H15.3703V1.94477H10.037V4.68919ZM11.8444 15.5161V13.7066H13.6222V15.5161H11.8444ZM2.62958 23.0557C2.17526 23.0557 1.76539 22.8698 1.39995 22.4978C1.03452 22.1258 0.851807 21.7086 0.851807 21.2462V15.5161H10.0666V16.4209C10.0666 16.6772 10.1519 16.8921 10.3226 17.0655C10.4932 17.2389 10.7046 17.3256 10.9569 17.3256H14.5179C14.7701 17.3256 14.9802 17.2389 15.1481 17.0655C15.316 16.8921 15.4 16.6772 15.4 16.4209V15.5161H24.5555V21.2462C24.5555 21.7086 24.3777 22.1258 24.0222 22.4978C23.6666 22.8698 23.2518 23.0557 22.7777 23.0557H2.62958Z" fill="white"/>
</svg>
