<svg width="20" height="20" viewBox="0 0 20 20" fill="none" xmlns="http://www.w3.org/2000/svg">
<path d="M9.70367 9.8625C8.39996 9.8625 7.3333 9.44028 6.50367 8.59584C5.67404 7.7514 5.25922 6.6657 5.25922 5.33872C5.25922 4.01174 5.67404 2.92604 6.50367 2.0816C7.3333 1.23716 8.39996 0.814941 9.70367 0.814941C11.0074 0.814941 12.074 1.23716 12.9037 2.0816C13.7333 2.92604 14.1481 4.01174 14.1481 5.33872C14.1481 6.6657 13.7333 7.7514 12.9037 8.59584C12.074 9.44028 11.0074 9.8625 9.70367 9.8625ZM1.99996 19.5434C1.50614 19.5434 1.08638 19.3675 0.740706 19.0156C0.395027 18.6638 0.222187 18.2365 0.222187 17.7339V16.7085C0.222187 15.9445 0.409841 15.291 0.78515 14.7482C1.16046 14.2053 1.64441 13.7932 2.237 13.5117C3.56046 12.9085 4.82959 12.4561 6.04441 12.1545C7.25922 11.853 8.47898 11.7022 9.70367 11.7022C10.9284 11.7022 12.1432 11.858 13.3481 12.1696C14.5531 12.4813 15.8172 12.9286 17.1407 13.5117C17.7531 13.7932 18.2469 14.2053 18.6222 14.7482C18.9975 15.291 19.1852 15.9445 19.1852 16.7085V17.7339C19.1852 18.2365 19.0123 18.6638 18.6666 19.0156C18.321 19.3675 17.9012 19.5434 17.4074 19.5434H1.99996Z" fill="white"/>
</svg>
