<svg width="24" height="26" viewBox="0 0 24 26" fill="none" xmlns="http://www.w3.org/2000/svg">
<path d="M1.81477 23.5483C1.32588 23.5483 0.907358 23.3742 0.55921 23.0261C0.211061 22.6779 0.0369873 22.2594 0.0369873 21.7705V4.52608C0.0369873 4.03719 0.190074 3.61867 0.496247 3.27052C0.802419 2.92237 1.06415 2.7483 1.28143 2.7483H7.26662C7.40489 2.05694 7.74563 1.48904 8.28884 1.0446C8.83205 0.600152 9.45921 0.37793 10.1703 0.37793C10.8814 0.37793 11.5086 0.600152 12.0518 1.0446C12.595 1.48904 12.9358 2.05694 13.074 2.7483H19.0592C19.5481 2.7483 19.9666 2.92237 20.3148 3.27052C20.6629 3.61867 20.837 4.03719 20.837 4.52608V11.815H19.0592V4.52608H15.9185V6.60015C15.9185 7.08904 15.7444 7.50756 15.3962 7.85571C15.0481 8.20386 14.6296 8.37793 14.1407 8.37793H6.73328C6.24439 8.37793 5.82588 8.20386 5.47773 7.85571C5.12958 7.50756 4.95551 7.08904 4.95551 6.60015V4.52608H1.81477V21.7705H9.22217V23.5483H1.81477ZM21.874 25.7113L18.9407 22.7779C18.5456 23.094 18.0962 23.3211 17.5925 23.4594C17.0888 23.5977 16.5703 23.6668 16.037 23.6668C14.6378 23.6668 13.4485 23.1768 12.4691 22.1967C11.4897 21.2166 11 20.0264 11 18.6263C11 17.2261 11.49 16.0372 12.4701 15.0594C13.4502 14.0816 14.6403 13.5927 16.0405 13.5927C17.4406 13.5927 18.6296 14.0825 19.6074 15.0619C20.5851 16.0413 21.074 17.2306 21.074 18.6298C21.074 19.1631 21.0049 19.6816 20.8666 20.1853C20.7283 20.689 20.5012 21.1384 20.1851 21.5335L23.1185 24.4668C23.2962 24.6446 23.3851 24.852 23.3851 25.089C23.3851 25.3261 23.2962 25.5335 23.1185 25.7113C22.9407 25.889 22.7333 25.9779 22.4962 25.9779C22.2592 25.9779 22.0518 25.889 21.874 25.7113ZM16.037 21.889C16.9654 21.889 17.7407 21.5779 18.3629 20.9557C18.9851 20.3335 19.2962 19.5582 19.2962 18.6298C19.2962 17.7014 18.9851 16.9261 18.3629 16.3039C17.7407 15.6816 16.9654 15.3705 16.037 15.3705C15.1086 15.3705 14.3333 15.6816 13.7111 16.3039C13.0888 16.9261 12.7777 17.7014 12.7777 18.6298C12.7777 19.5582 13.0888 20.3335 13.7111 20.9557C14.3333 21.5779 15.1086 21.889 16.037 21.889ZM10.7037 4.40756C11.0395 4.40756 11.3209 4.29398 11.5481 4.06682C11.7753 3.83966 11.8888 3.55818 11.8888 3.22237C11.8888 2.88657 11.7753 2.60509 11.5481 2.37793C11.3209 2.15077 11.0395 2.03719 10.7037 2.03719C10.3679 2.03719 10.0864 2.15077 9.85921 2.37793C9.63205 2.60509 9.51847 2.88657 9.51847 3.22237C9.51847 3.55818 9.63205 3.83966 9.85921 4.06682C10.0864 4.29398 10.3679 4.40756 10.7037 4.40756Z" fill="white"/>
</svg>
