<svg width="22" height="26" viewBox="0 0 22 26" fill="none" xmlns="http://www.w3.org/2000/svg">
<path d="M6.91106 19.9038H8.68884V9.71018H5.42958V11.5197H6.91106V19.9038ZM12.0666 19.9038H14.2296C14.7432 19.9038 15.1679 19.7329 15.5037 19.3911C15.8395 19.0493 16.0074 18.617 16.0074 18.0943V11.5197C16.0074 10.9969 15.8395 10.5647 15.5037 10.2229C15.1679 9.88108 14.7432 9.71018 14.2296 9.71018H12.0666C11.553 9.71018 11.1283 9.88108 10.7925 10.2229C10.4567 10.5647 10.2888 10.9969 10.2888 11.5197V18.0943C10.2888 18.617 10.4567 19.0493 10.7925 19.3911C11.1283 19.7329 11.553 19.9038 12.0666 19.9038ZM12.0666 18.0943V11.5197H14.2296V18.0943H12.0666ZM7.1481 1.83881V0.0292969H14.2592V1.83881H7.1481ZM10.7037 25.3323C9.24193 25.3323 7.86415 25.0458 6.57032 24.4728C5.27649 23.8998 4.14563 23.1207 3.17773 22.1355C2.20983 21.1503 1.44439 19.9993 0.881432 18.6823C0.318469 17.3654 0.0369873 15.963 0.0369873 14.4752C0.0369873 12.9874 0.318469 11.585 0.881432 10.2681C1.44439 8.95119 2.20983 7.80014 3.17773 6.81496C4.14563 5.82979 5.27649 5.05069 6.57032 4.47768C7.86415 3.90467 9.24193 3.61816 10.7037 3.61816C12.0271 3.61816 13.2666 3.83932 14.4222 4.28165C15.5777 4.72397 16.6098 5.34725 17.5185 6.15148L19.0296 4.61339L20.3037 5.91021L18.7925 7.44829C19.5037 8.25252 20.1111 9.22765 20.6148 10.3737C21.1185 11.5197 21.3703 12.8869 21.3703 14.4752C21.3703 15.963 21.0888 17.3654 20.5259 18.6823C19.9629 19.9993 19.1975 21.1503 18.2296 22.1355C17.2617 23.1207 16.1308 23.8998 14.837 24.4728C13.5432 25.0458 12.1654 25.3323 10.7037 25.3323ZM10.7037 23.5228C13.1728 23.5228 15.2716 22.6432 16.9999 20.8839C18.7283 19.1247 19.5925 16.9884 19.5925 14.4752C19.5925 11.962 18.7283 9.82579 16.9999 8.06654C15.2716 6.3073 13.1728 5.42767 10.7037 5.42767C8.23452 5.42767 6.13575 6.3073 4.40736 8.06654C2.67896 9.82579 1.81476 11.962 1.81476 14.4752C1.81476 16.9884 2.67896 19.1247 4.40736 20.8839C6.13575 22.6432 8.23452 23.5228 10.7037 23.5228Z" fill="white"/>
</svg>
