<svg width="24" height="24" viewBox="0 0 24 24" fill="none" xmlns="http://www.w3.org/2000/svg">
<path d="M22.4814 17.5928H4.99995C4.51107 17.5928 4.09255 17.4156 3.7444 17.0612C3.39625 16.7069 3.22218 16.2809 3.22218 15.7833V1.91034H1.7407C1.48884 1.91034 1.27773 1.82313 1.10736 1.64872C0.936992 1.47428 0.851807 1.25814 0.851807 1.00031C0.851807 0.742453 0.936992 0.528076 1.10736 0.357177C1.27773 0.186279 1.48884 0.10083 1.7407 0.10083H3.22218C3.71107 0.10083 4.12958 0.278011 4.47773 0.632374C4.82588 0.986737 4.99995 1.41273 4.99995 1.91034V15.7833H22.4814C22.7333 15.7833 22.9444 15.8705 23.1148 16.0449C23.2851 16.2193 23.3703 16.4355 23.3703 16.6933C23.3703 16.9511 23.2851 17.1655 23.1148 17.3364C22.9444 17.5073 22.7333 17.5928 22.4814 17.5928ZM4.97373 23.0213C4.47763 23.0213 4.06168 22.8436 3.72588 22.4882C3.39008 22.1328 3.22218 21.7055 3.22218 21.2065C3.22218 20.7074 3.39008 20.2819 3.72588 19.9301C4.06168 19.5782 4.47763 19.4023 4.97373 19.4023C5.46983 19.4023 5.89452 19.58 6.24781 19.9354C6.60109 20.2908 6.77773 20.718 6.77773 21.2171C6.77773 21.7162 6.60109 22.1417 6.24781 22.4935C5.89452 22.8454 5.46983 23.0213 4.97373 23.0213ZM7.96292 13.6722C7.71107 13.6722 7.49995 13.5855 7.32958 13.412C7.15921 13.2386 7.07403 13.0238 7.07403 12.7674V7.94205C7.07403 7.6857 7.15921 7.47082 7.32958 7.29741C7.49995 7.124 7.71107 7.03729 7.96292 7.03729H12.7037C12.9555 7.03729 13.1666 7.124 13.337 7.29741C13.5074 7.47082 13.5925 7.6857 13.5925 7.94205V12.7674C13.5925 13.0238 13.5074 13.2386 13.337 13.412C13.1666 13.5855 12.9555 13.6722 12.7037 13.6722H7.96292ZM16.2592 13.6722C16.0074 13.6722 15.7963 13.5855 15.6259 13.412C15.4555 13.2386 15.3703 13.0238 15.3703 12.7674V7.94205C15.3703 7.6857 15.4555 7.47082 15.6259 7.29741C15.7963 7.124 16.0074 7.03729 16.2592 7.03729H21C21.2518 7.03729 21.4629 7.124 21.6333 7.29741C21.8037 7.47082 21.8888 7.6857 21.8888 7.94205V12.7674C21.8888 13.0238 21.8037 13.2386 21.6333 13.412C21.4629 13.5855 21.2518 13.6722 21 13.6722H16.2592ZM21.5873 23.0213C21.097 23.0213 20.679 22.8436 20.3333 22.4882C19.9876 22.1328 19.8148 21.7055 19.8148 21.2065C19.8148 20.7074 19.9894 20.2819 20.3385 19.9301C20.6877 19.5782 21.1075 19.4023 21.5978 19.4023C22.0881 19.4023 22.5061 19.58 22.8518 19.9354C23.1975 20.2908 23.3703 20.718 23.3703 21.2171C23.3703 21.7162 23.1957 22.1417 22.8466 22.4935C22.4974 22.8454 22.0776 23.0213 21.5873 23.0213Z" fill="white"/>
</svg>
